<?xml version="1.0" standalone="no"?>
<!DOCTYPE svg PUBLIC "-//W3C//DTD SVG 20010904//EN"
 "http://www.w3.org/TR/2001/REC-SVG-20010904/DTD/svg10.dtd">
<svg version="1.0" xmlns="http://www.w3.org/2000/svg"
 width="225.000000pt" height="225.000000pt" viewBox="0 0 225.000000 225.000000"
 preserveAspectRatio="xMidYMid meet">

<g transform="translate(0.000000,225.000000) scale(0.100000,-0.100000)"
fill="#000000" stroke="none">
<path d="M1517 1676 c-6 -14 2 -56 10 -56 9 0 53 33 53 40 0 4 -8 10 -17 14
-10 3 -23 8 -29 11 -6 3 -14 -1 -17 -9z"/>
<path d="M661 1640 c-27 -23 -17 -45 24 -53 27 -5 31 6 19 51 -8 27 -12 27
-43 2z"/>
<path d="M1080 1585 c0 -12 9 -30 21 -41 17 -16 22 -16 30 -4 38 57 35 68 -16
67 -29 -1 -35 -5 -35 -22z"/>
<path d="M736 1525 c-9 -26 -7 -32 5 -12 6 10 9 21 6 23 -2 3 -7 -2 -11 -11z"/>
<path d="M1402 1528 c-6 -6 -12 -16 -12 -22 0 -5 6 -2 13 8 20 28 80 12 112
-30 14 -18 52 -53 84 -78 69 -53 85 -86 79 -161 -4 -44 -11 -62 -34 -87 -32
-34 -89 -63 -148 -74 -45 -8 -59 6 -45 43 22 58 4 95 -41 83 -28 -7 -39 -38
-18 -51 10 -7 10 -9 -2 -9 -25 0 -37 13 -44 50 -3 19 -22 59 -41 87 -19 29
-35 56 -35 61 0 5 20 27 45 49 30 27 45 48 45 65 0 13 5 29 12 36 8 8 8 12 1
12 -12 0 -23 -23 -23 -49 0 -9 -20 -36 -44 -60 l-45 -44 -10 39 c-21 77 -131
93 -166 24 -9 -18 -28 -33 -52 -41 -21 -6 -47 -18 -59 -25 -18 -12 -23 -11
-46 14 -14 15 -28 39 -32 54 -3 15 -20 35 -39 47 -42 26 -96 15 -118 -25 -20
-39 -70 -77 -82 -65 -34 34 -92 -13 -69 -56 7 -12 7 -25 1 -34 -5 -7 -8 -21
-8 -29 0 -8 5 -4 10 9 14 35 182 197 212 205 17 4 31 1 41 -9 8 -8 19 -15 25
-15 6 0 15 -18 21 -40 6 -23 21 -47 35 -56 l25 -16 -27 -35 c-20 -26 -28 -50
-31 -94 -4 -52 -1 -65 22 -100 22 -32 25 -43 15 -55 -15 -18 -53 -18 -69 1
-10 13 -9 19 5 35 10 11 16 23 12 26 -10 11 -38 -43 -31 -61 7 -17 2 -18 -55
-12 -71 6 -146 40 -174 78 -10 14 -24 47 -32 75 -7 27 -13 40 -14 29 0 -11 6
-38 14 -59 15 -43 11 -59 -25 -91 -39 -35 -43 -57 -48 -220 -4 -155 -3 -161
20 -195 44 -65 192 -123 383 -150 103 -14 356 -12 465 5 169 25 280 67 338
127 32 34 32 36 33 132 0 54 -2 100 -5 104 -3 3 -6 -15 -6 -40 0 -30 -6 -50
-17 -60 -21 -18 -92 -55 -142 -73 -20 -8 -29 -14 -21 -14 19 -1 140 56 163 76
16 15 17 13 17 -37 0 -49 -3 -56 -39 -91 -73 -69 -247 -116 -463 -126 l-138
-6 0 66 0 66 113 4 112 3 -112 2 -113 2 0 65 0 65 74 0 c94 0 134 8 141 29 3
12 16 16 45 16 39 0 39 0 15 -13 -14 -7 -25 -14 -25 -16 0 -7 119 16 185 36
81 24 148 57 188 93 51 45 44 85 -27 169 l-44 51 19 35 c11 19 19 49 19 66 0
18 8 38 20 49 41 37 15 109 -32 88 -19 -8 -32 -2 -85 40 -35 27 -63 52 -63 55
-2 38 -101 77 -128 50z m-210 -81 c7 -7 20 -16 29 -19 9 -4 19 -20 22 -37 4
-17 27 -66 52 -108 25 -43 45 -87 45 -98 -1 -23 -22 -55 -38 -55 -6 0 -35 -19
-64 -43 -72 -59 -77 -61 -95 -45 -15 12 -15 11 -5 -9 17 -31 5 -53 -29 -53
-18 0 -32 7 -39 20 -6 11 -32 31 -58 44 -77 40 -105 76 -109 143 -5 85 22 128
107 170 36 18 75 45 88 60 12 15 28 27 36 25 8 -1 17 2 21 8 8 14 21 13 37 -3z
m-538 -75 c3 -5 -8 -18 -24 -30 -31 -23 -46 -16 -35 18 6 20 49 28 59 12z
m1050 2 c18 -7 21 -41 6 -64 -10 -17 -12 -15 -34 27 -12 24 -13 33 -3 36 6 3
13 6 14 6 1 1 8 -2 17 -5z m-269 -247 c-9 -34 -33 -42 -55 -17 -9 11 -19 17
-23 14 -3 -3 -7 -1 -11 4 -9 15 28 10 47 -6 9 -8 20 -12 24 -9 3 4 1 7 -5 7
-7 0 -12 5 -12 11 0 5 5 7 10 4 6 -3 13 1 16 10 10 24 16 11 9 -18z m-1 -53
c10 -25 -1 -29 -14 -5 -6 12 -7 21 -1 21 5 0 12 -7 15 -16z m261 -66 c-10 -73
-62 -108 -232 -150 -79 -20 -114 -22 -328 -23 -261 0 -339 12 -467 68 -64 29
-88 57 -88 106 l0 35 28 -26 c42 -39 99 -65 72 -33 -10 12 -10 15 3 15 9 0 19
-5 22 -10 4 -6 16 -8 28 -5 21 6 21 6 3 -9 -11 -9 -18 -18 -15 -20 11 -11 168
-37 285 -48 146 -12 337 -1 467 28 87 19 193 68 207 94 16 30 20 24 15 -22z
m22 0 c-3 -8 -6 -5 -6 6 -1 11 2 17 5 13 3 -3 4 -12 1 -19z m-1161 -89 c51
-56 225 -111 420 -131 l114 -12 0 -63 0 -63 -57 -2 -58 -2 58 -3 57 -4 0 -64
0 -65 -52 0 c-121 0 -330 46 -419 91 -20 10 -50 34 -67 54 -26 29 -32 45 -32
80 0 25 2 45 4 45 3 0 21 -9 40 -21 49 -29 45 -18 -4 15 l-41 27 3 69 c2 39 6
70 9 70 3 0 14 -9 25 -21z m491 5 c-3 -3 -12 -4 -19 -1 -8 3 -5 6 6 6 11 1 17
-2 13 -5z m643 -10 c0 -8 -19 -13 -24 -6 -3 5 1 9 9 9 8 0 15 -2 15 -3z m-843
-90 c-5 -5 -57 13 -57 20 0 3 14 0 31 -6 16 -6 28 -12 26 -14z"/>
<path d="M1140 1396 c0 -8 4 -17 9 -20 5 -4 7 3 4 14 -6 23 -13 26 -13 6z"/>
<path d="M1191 1394 c0 -11 3 -14 6 -6 3 7 2 16 -1 19 -3 4 -6 -2 -5 -13z"/>
<path d="M1060 1356 c0 -2 9 -6 20 -9 11 -3 18 -1 14 4 -5 9 -34 13 -34 5z"/>
<path d="M1238 1313 c7 -3 16 -2 19 1 4 3 -2 6 -13 5 -11 0 -14 -3 -6 -6z"/>
<path d="M1066 1211 c-4 -5 -2 -12 3 -15 5 -4 12 0 14 6 4 9 6 8 6 -3 1 -11
-9 -15 -35 -16 -41 -1 -52 -9 -36 -25 8 -8 21 -8 44 -2 25 8 33 15 33 34 0 24
-19 38 -29 21z"/>
<path d="M1234 1164 c-6 -25 -9 -26 -49 -20 -24 3 -49 7 -56 8 -22 5 -22 -39
0 -61 25 -25 54 -18 86 23 14 17 25 26 25 19 0 -6 9 -9 20 -6 20 5 28 23 11
23 -5 0 -12 7 -15 16 -6 15 -4 15 10 3 15 -12 17 -12 12 1 -9 27 -37 23 -44
-6z"/>
<path d="M1380 890 c0 -5 5 -10 10 -10 6 0 10 5 10 10 0 6 -4 10 -10 10 -5 0
-10 -4 -10 -10z"/>
<path d="M623 730 c24 -15 126 -50 146 -50 9 1 -15 11 -54 24 -38 13 -79 27
-90 30 -18 7 -18 6 -2 -4z"/>
<path d="M798 673 c6 -2 18 -2 25 0 6 3 1 5 -13 5 -14 0 -19 -2 -12 -5z"/>
<path d="M848 663 c6 -2 18 -2 25 0 6 3 1 5 -13 5 -14 0 -19 -2 -12 -5z"/>
<path d="M918 653 c12 -2 30 -2 40 0 9 3 -1 5 -23 4 -22 0 -30 -2 -17 -4z"/>
<path d="M1590 1525 c0 -5 5 -17 10 -25 5 -8 10 -10 10 -5 0 6 -5 17 -10 25
-5 8 -10 11 -10 5z"/>
<path d="M1635 1509 c-4 -6 -5 -12 -2 -15 2 -3 7 2 10 11 7 17 1 20 -8 4z"/>
<path d="M667 1489 c7 -7 15 -10 18 -7 3 3 -2 9 -12 12 -14 6 -15 5 -6 -5z"/>
<path d="M1660 1480 c-9 -6 -10 -10 -3 -10 6 0 15 5 18 10 8 12 4 12 -15 0z"/>
<path d="M1420 1463 c0 -6 8 -17 18 -24 16 -13 16 -13 2 6 -8 11 -16 22 -17
24 -2 2 -3 0 -3 -6z"/>
<path d="M1470 1461 c0 -5 5 -13 10 -16 6 -3 10 -2 10 4 0 5 -4 13 -10 16 -5
3 -10 2 -10 -4z"/>
<path d="M816 1403 c-6 -14 -5 -15 5 -6 7 7 10 15 7 18 -3 3 -9 -2 -12 -12z"/>
<path d="M1572 1308 c-7 -7 -12 -16 -12 -22 0 -5 6 -3 13 6 6 9 21 18 32 21
20 5 20 5 0 6 -12 0 -26 -4 -33 -11z"/>
<path d="M668 1260 c12 -5 22 -15 22 -21 0 -7 3 -9 6 -6 10 10 -16 37 -35 36
-11 0 -9 -3 7 -9z"/>
<path d="M1393 1263 c-7 -2 -13 -9 -13 -14 0 -5 9 -4 20 3 15 10 22 10 32 0
17 -17 33 -15 18 3 -12 15 -34 18 -57 8z"/>
<path d="M1616 1245 c-3 -9 1 -18 10 -22 19 -7 28 2 21 22 -8 19 -23 19 -31 0z"/>
<path d="M1520 1235 c-43 -15 -46 -25 -20 -58 39 -49 70 -32 70 39 0 37 0 37
-50 19z"/>
<path d="M825 1219 c-5 -8 -1 -9 14 -4 13 4 21 2 21 -5 0 -7 -9 -14 -20 -17
-20 -5 -28 -23 -11 -23 4 0 6 -11 4 -24 -3 -13 0 -27 7 -31 17 -10 45 20 34
37 -5 7 -9 26 -9 43 0 31 -26 47 -40 24z"/>
<path d="M620 1191 c0 -12 6 -21 16 -21 9 0 14 7 12 17 -5 25 -28 28 -28 4z"/>
<path d="M694 1197 c-7 -19 3 -66 18 -84 14 -17 36 -5 54 29 17 34 12 48 -20
48 -12 0 -27 5 -34 12 -9 9 -13 7 -18 -5z"/>
<path d="M1490 680 c-20 -6 -21 -8 -5 -8 11 0 29 3 40 8 25 11 -1 11 -35 0z"/>
<path d="M1370 660 l-45 -7 40 0 c22 0 54 3 70 7 26 7 27 8 5 7 -14 0 -45 -3
-70 -7z"/>
</g>
</svg>
