<?xml version="1.0" encoding="UTF-8"?>
<svg version="1.1" xmlns="http://www.w3.org/2000/svg" width="208" height="148">
<path d="M0 0 C68.64 0 137.28 0 208 0 C208 48.84 208 97.68 208 148 C139.36 148 70.72 148 0 148 C0 99.16 0 50.32 0 0 Z " fill="#FAE9D1" transform="translate(0,0)"/>
<path d="M0 0 C0.99 0.66 1.98 1.32 3 2 C3.75304621 8.40089275 1.93717375 13.20186014 -1.6875 18.4375 C-2.120625 18.953125 -2.55375 19.46875 -3 20 C-2.26523438 20.12246094 -1.53046875 20.24492188 -0.7734375 20.37109375 C8.6542235 22.50891547 14.51499115 28.9527458 19.8125 36.625 C22.71313215 42.4262643 23.32836163 47.441965 23.25 53.8125 C23.24178223 54.6156665 23.23356445 55.41883301 23.22509766 56.24633789 C22.92252145 72.25196841 15.80279013 84.33160361 4.44140625 95.51953125 C0.4836564 99.15972019 -3.30895259 102.34201754 -8 105 C-6.82630859 105.07347656 -6.82630859 105.07347656 -5.62890625 105.1484375 C-4.61699219 105.22320312 -3.60507813 105.29796875 -2.5625 105.375 C-1.55316406 105.44460937 -0.54382813 105.51421875 0.49609375 105.5859375 C1.73552734 105.79089844 1.73552734 105.79089844 3 106 C3.33 106.66 3.66 107.32 4 108 C1.51226446 109.24386777 -0.16979165 109.13360954 -2.95288086 109.14526367 C-3.98412582 109.15164352 -5.01537079 109.15802338 -6.0778656 109.16459656 C-7.19556839 109.16570938 -8.31327118 109.1668222 -9.46484375 109.16796875 C-10.60909317 109.17129715 -11.75334259 109.17462555 -12.93226624 109.17805481 C-15.35580034 109.18312468 -17.77934145 109.18546312 -20.20288086 109.18530273 C-23.91857354 109.18748886 -27.63396928 109.20564323 -31.34960938 109.22460938 C-33.70051981 109.22754329 -36.05143167 109.2295281 -38.40234375 109.23046875 C-39.51802231 109.23765427 -40.63370087 109.24483978 -41.78318787 109.25224304 C-42.81758499 109.24916641 -43.85198212 109.24608978 -44.91772461 109.24291992 C-45.82880478 109.24434494 -46.73988495 109.24576996 -47.67857361 109.24723816 C-50 109 -50 109 -53 107 C-46.565 106.01 -46.565 106.01 -40 105 C-41.2375 104.38125 -42.475 103.7625 -43.75 103.125 C-54.3630865 97.17498615 -62.58431386 89.30786907 -69 79 C-69.60070312 78.09894531 -70.20140625 77.19789062 -70.8203125 76.26953125 C-76.45405096 66.77078617 -76.58421265 55.82484466 -74.125 45.23046875 C-70.69761228 35.3886297 -62.83868574 27.09835918 -53.6875 22.2421875 C-52.800625 21.83226563 -51.91375 21.42234375 -51 21 C-51.40992187 20.54109375 -51.81984375 20.0821875 -52.2421875 19.609375 C-52.78101562 18.99578125 -53.31984375 18.3821875 -53.875 17.75 C-54.40867187 17.14671875 -54.94234375 16.5434375 -55.4921875 15.921875 C-58.56400814 12.0064974 -59.54554678 9.01903041 -59 4 C-54.27821718 0.85214478 -49.51830396 1.20975744 -44 2 C-40.34309003 3.60235571 -37.21323278 5.64647466 -34 8 C-33.01 8.66 -32.02 9.32 -31 10 C-31.185625 9.030625 -31.37125 8.06125 -31.5625 7.0625 C-31.706875 6.051875 -31.85125 5.04125 -32 4 C-31 3 -31 3 -28.4375 2.9375 C-27.2309375 2.9684375 -27.2309375 2.9684375 -26 3 C-24.68 5.64 -23.36 8.28 -22 11 C-21.49210937 10.45730469 -20.98421875 9.91460937 -20.4609375 9.35546875 C-14.02763464 2.66917084 -9.46716745 -0.77599733 0 0 Z " fill="#EAAB63" transform="translate(128,17)"/>
<path d="M0 0 C0.99 0.66 1.98 1.32 3 2 C3.75304621 8.40089275 1.93717375 13.20186014 -1.6875 18.4375 C-2.120625 18.953125 -2.55375 19.46875 -3 20 C-2.26523438 20.12246094 -1.53046875 20.24492188 -0.7734375 20.37109375 C8.74194999 22.52880838 14.26530387 29.02040516 19.875 36.5 C21.44848193 39.9966265 21.67660294 43.18391467 22 47 C20 45 20 45 18.75 41.375 C15.90587722 33.55366235 11.48047834 28.53622613 4 25 C-3.28421962 21.6088591 -11.77029183 21.97796209 -19.3125 24.5 C-20.529375 24.995 -21.74625 25.49 -23 26 C-22.01 27.32 -21.02 28.64 -20 30 C-20.33 30.66 -20.66 31.32 -21 32 C-21.44730469 31.59007813 -21.89460938 31.18015625 -22.35546875 30.7578125 C-22.96003906 30.21898438 -23.56460938 29.68015625 -24.1875 29.125 C-24.77917969 28.59132813 -25.37085938 28.05765625 -25.98046875 27.5078125 C-32.94688254 22.30658286 -42.7135598 22.90527762 -51 24 C-59.41894545 26.83410045 -65.3836355 33.57924618 -69.8125 41.0625 C-72.27060202 47.14306816 -73.2412611 52.3687481 -73.125 58.9375 C-73.11597656 59.62134766 -73.10695312 60.30519531 -73.09765625 61.00976562 C-73.07438958 62.67333287 -73.03853167 64.33671631 -73 66 C-76.85878339 60.21182491 -75.46666289 51.84664366 -74.375 45.1875 C-69.72364142 34.4048051 -61.68700121 25.93963137 -51 21 C-51.40992187 20.54109375 -51.81984375 20.0821875 -52.2421875 19.609375 C-52.78101562 18.99578125 -53.31984375 18.3821875 -53.875 17.75 C-54.40867187 17.14671875 -54.94234375 16.5434375 -55.4921875 15.921875 C-58.56400814 12.0064974 -59.54554678 9.01903041 -59 4 C-54.27821718 0.85214478 -49.51830396 1.20975744 -44 2 C-40.34309003 3.60235571 -37.21323278 5.64647466 -34 8 C-33.01 8.66 -32.02 9.32 -31 10 C-31.185625 9.030625 -31.37125 8.06125 -31.5625 7.0625 C-31.706875 6.051875 -31.85125 5.04125 -32 4 C-31 3 -31 3 -28.4375 2.9375 C-27.2309375 2.9684375 -27.2309375 2.9684375 -26 3 C-24.68 5.64 -23.36 8.28 -22 11 C-21.49210937 10.45730469 -20.98421875 9.91460937 -20.4609375 9.35546875 C-14.02763464 2.66917084 -9.46716745 -0.77599733 0 0 Z " fill="#584947" transform="translate(128,17)"/>
<path d="M0 0 C9.44705788 -0.41883508 15.73871705 0.16195672 23.25 6.3125 C26.4332509 9.23664908 28.52902098 11.86287151 30 16 C30 17.32 30 18.64 30 20 C28.783125 19.690625 27.56625 19.38125 26.3125 19.0625 C22.26007688 18.11351484 18.46766845 17.90780203 14.3125 17.8125 C8.6451579 17.45498076 8.6451579 17.45498076 5.90625 15.5234375 C4.36001594 13.7422365 3.14654563 12.05866744 2 10 C1.62230469 9.38769531 1.24460937 8.77539062 0.85546875 8.14453125 C-0.25637614 5.35730365 -0.13506563 2.97144378 0 0 Z " fill="#C5D27C" transform="translate(71,21)"/>
<path d="M0 0 C0.33 0 0.66 0 1 0 C1.44075078 18.58499142 -2.15399685 30.93056797 -15 45 C-19.67615762 49.6047659 -24.27275632 53.754901 -30 57 C-29.21753906 57.04898438 -28.43507813 57.09796875 -27.62890625 57.1484375 C-26.61699219 57.22320312 -25.60507813 57.29796875 -24.5625 57.375 C-23.55316406 57.44460937 -22.54382813 57.51421875 -21.50390625 57.5859375 C-20.26447266 57.79089844 -20.26447266 57.79089844 -19 58 C-18.67 58.66 -18.34 59.32 -18 60 C-20.48773554 61.24386777 -22.16979165 61.13360954 -24.95288086 61.14526367 C-25.98412582 61.15164352 -27.01537079 61.15802338 -28.0778656 61.16459656 C-29.19556839 61.16570938 -30.31327118 61.1668222 -31.46484375 61.16796875 C-32.60909317 61.17129715 -33.75334259 61.17462555 -34.93226624 61.17805481 C-37.35580034 61.18312468 -39.77934145 61.18546312 -42.20288086 61.18530273 C-45.91857354 61.18748886 -49.63396928 61.20564323 -53.34960938 61.22460938 C-55.70051981 61.22754329 -58.05143167 61.2295281 -60.40234375 61.23046875 C-61.51802231 61.23765427 -62.63370087 61.24483978 -63.78318787 61.25224304 C-64.81758499 61.24916641 -65.85198212 61.24608978 -66.91772461 61.24291992 C-67.82880478 61.24434494 -68.73988495 61.24576996 -69.67857361 61.24723816 C-72 61 -72 61 -75 59 C-70.71 58.34 -66.42 57.68 -62 57 C-63.2375 56.38125 -64.475 55.7625 -65.75 55.125 C-78.77121943 47.82491478 -89.37181417 36.94811272 -95 23 C-94.58984375 20.77734375 -94.58984375 20.77734375 -94 19 C-93.62230469 19.87140625 -93.24460938 20.7428125 -92.85546875 21.640625 C-85.31034028 37.96778824 -73.42511412 49.43253805 -57 57 C-53.57756686 58.00082535 -53.57756686 58.00082535 -50 58 C-49.10667969 58.08378906 -48.21335938 58.16757813 -47.29296875 58.25390625 C-38.9872337 58.75502249 -33.82955712 56.57770624 -27 52 C-26.29101562 51.55527344 -25.58203125 51.11054687 -24.8515625 50.65234375 C-12.69730463 42.41339029 -4.37380961 28.10159133 -1 14 C-0.72667199 11.52715509 -0.51693445 9.0463528 -0.375 6.5625 C-0.30023438 5.32628906 -0.22546875 4.09007813 -0.1484375 2.81640625 C-0.07496094 1.42228516 -0.07496094 1.42228516 0 0 Z " fill="#48373B" transform="translate(150,65)"/>
<path d="M0 0 C0.91007812 0.00902344 1.82015625 0.01804687 2.7578125 0.02734375 C3.80582031 0.04474609 3.80582031 0.04474609 4.875 0.0625 C5.50232735 6.64943717 4.8767847 10.84116591 0.9140625 16.25 C-2.85964214 19.60440413 -7.27798136 19.59320773 -12.125 20.0625 C-14.50118201 20.63196431 -16.7907042 21.33627464 -19.125 22.0625 C-18.81211858 15.02266802 -17.68163637 10.44448012 -12.375 5.3984375 C-8.10540818 1.64475469 -5.80439263 -0.07441529 0 0 Z " fill="#CBD97C" transform="translate(124.125,18.9375)"/>
<path d="M0 0 C3.52453897 1.17484632 4.02329183 2.10284815 6.125 5.0625 C14.13993205 15.65366021 24.73406483 23.57599191 38 26 C41.69432511 25.85387105 41.69432511 25.85387105 45 25 C48.5491252 24.26059892 50.68476619 23.92725374 54.25 24.75 C60.45050342 25.16336689 65.24160708 22.24255173 69.984375 18.38671875 C73.72607299 14.78574834 76.7861251 10.76633445 79.73828125 6.50390625 C80.36283203 5.75947266 80.36283203 5.75947266 81 5 C81.66 5 82.32 5 83 5 C81.59808647 7.99254618 79.96632511 10.5954611 78 13.25 C77.484375 13.95640625 76.96875 14.6628125 76.4375 15.390625 C75.963125 15.92171875 75.48875 16.4528125 75 17 C74.34 17 73.68 17 73 17 C72.505 18.485 72.505 18.485 72 20 C68.54273932 22.95902628 64.7781533 25.46935015 61 28 C60.31164062 28.46535156 59.62328125 28.93070313 58.9140625 29.41015625 C52.06262909 33.44296199 44.11300583 32.66718697 36.5 31.4375 C23.0271652 27.92920305 9.01353151 16.07266529 1.90625 4.16796875 C1.21664865 2.80472905 0.59755903 1.40602124 0 0 Z " fill="#DC8E54" transform="translate(59,92)"/>
<path d="M0 0 C3.65690997 1.60235571 6.78676722 3.64647466 10 6 C10.99 6.66 11.98 7.32 13 8 C12.814375 7.030625 12.62875 6.06125 12.4375 5.0625 C12.293125 4.051875 12.14875 3.04125 12 2 C13 1 13 1 15.4375 0.75 C16.7059375 0.87375 16.7059375 0.87375 18 1 C20.4294516 4.6441774 20.16179575 6.71241272 20 11 C19.505 9.02 19.505 9.02 19 7 C18.34 7 17.68 7 17 7 C17.33 5.68 17.66 4.36 18 3 C16.68 3 15.36 3 14 3 C14.28875 3.80824219 14.5775 4.61648437 14.875 5.44921875 C15.24625 6.51785156 15.6175 7.58648437 16 8.6875 C16.37125 9.74324219 16.7425 10.79898437 17.125 11.88671875 C17.9391857 14.78362056 18.17709796 17.01700623 18 20 C16.27774009 17.76106212 14.74554235 15.56647955 13.3125 13.125 C9.33515964 7.75021572 5.67275859 4.33145335 -1.078125 3.1796875 C-5.04203387 2.63203061 -9.00901393 2.28091892 -13 2 C-11.88866625 8.22346899 -10.29066877 14.08353091 -5 18 C-1.67067765 18.70647628 1.38087887 18.87528362 4.78125 18.8671875 C8.19645828 19.00810629 10.82179596 19.78424123 14 21 C10.76473588 22.07842137 8.21301816 21.93727189 4.84301758 21.78125 C-3.91561373 21.43990072 -10.20564074 21.87989013 -17 28 C-24.22691086 34.95107457 -28.69251233 42.75800036 -29.1953125 52.96484375 C-29.17210937 54.27582031 -29.14890625 55.58679688 -29.125 56.9375 C-29.11597656 57.62134766 -29.10695312 58.30519531 -29.09765625 59.00976562 C-29.07438958 60.67333287 -29.03853167 62.33671631 -29 64 C-32.85878339 58.21182491 -31.46666289 49.84664366 -30.375 43.1875 C-25.72364142 32.4048051 -17.68700121 23.93963137 -7 19 C-7.40992187 18.54109375 -7.81984375 18.0821875 -8.2421875 17.609375 C-8.78101562 16.99578125 -9.31984375 16.3821875 -9.875 15.75 C-10.67550781 14.84507813 -10.67550781 14.84507813 -11.4921875 13.921875 C-14.56400814 10.0064974 -15.54554678 7.01903041 -15 2 C-10.27821718 -1.14785522 -5.51830396 -0.79024256 0 0 Z " fill="#5C4C47" transform="translate(84,19)"/>
<path d="M0 0 C1.4375 2.0625 1.4375 2.0625 2 4 C-1.26886307 6.87215639 -4.00626391 7.60066901 -8.25 8.375 C-14.93041042 9.84289287 -20.47237257 11.37706735 -24.5234375 17.18359375 C-25.79397128 19.41988009 -26.9225658 21.66555923 -28 24 C-28.663918 25.33470413 -29.32971262 26.66848318 -30 28 C-29.52521968 18.0296133 -26.36784097 11.95256942 -19.125 5.0625 C-12.98137894 -0.15275166 -8.16188293 -2.24051688 0 0 Z " fill="#F3C184" transform="translate(89,44)"/>
<path d="M0 0 C0.66372963 6.9691611 -0.38245926 10.56499664 -4.296875 16.34765625 C-6 18 -6 18 -10 18 C-10 17.34 -10 16.68 -10 16 C-10.66 16 -11.32 16 -12 16 C-12.33 14.68 -12.66 13.36 -13 12 C-15.31 13.98 -17.62 15.96 -20 18 C-17.3996686 12.79933719 -6.62377827 0 0 0 Z " fill="#B3BD6E" transform="translate(129,19)"/>
<path d="M0 0 C1.95825873 -0.02694851 3.91662226 -0.04637218 5.875 -0.0625 C6.96554688 -0.07410156 8.05609375 -0.08570312 9.1796875 -0.09765625 C12 0 12 0 14 1 C13.67 1.66 13.34 2.32 13 3 C11.68 2.67 10.36 2.34 9 2 C9 2.66 9 3.32 9 4 C7.68 4.33 6.36 4.66 5 5 C6.11375 5.268125 7.2275 5.53625 8.375 5.8125 C12 7 12 7 14 10 C13.01 10 12.02 10 11 10 C11.33 11.32 11.66 12.64 12 14 C11.34 14 10.68 14 10 14 C10 14.66 10 15.32 10 16 C10.66 16.33 11.32 16.66 12 17 C9.875 17 9.875 17 7 16 C2.28871109 10.87168312 -0.15209487 6.9963641 0 0 Z " fill="#CAD87D" transform="translate(71,21)"/>
<path d="M0 0 C5.452999 1.56818272 9.76486783 3.03810217 14 7 C13.34 5.68 12.68 4.36 12 3 C13.96466413 1.93224776 15.96855359 0.93446535 18 0 C18.66 0.33 19.32 0.66 20 1 C19.814375 2.03125 19.62875 3.0625 19.4375 4.125 C18.82836592 7.91568759 18.82836592 7.91568759 19.5625 11.3125 C19.706875 12.199375 19.85125 13.08625 20 14 C19.34 14.66 18.68 15.32 18 16 C14.96605209 15.88454321 13.97768931 14.97772922 11.81640625 12.8203125 C11.07261719 11.93085937 10.32882813 11.04140625 9.5625 10.125 C6.58676251 6.5748158 3.97317585 4.34045985 0 2 C0 1.34 0 0.68 0 0 Z " fill="#E39D56" transform="translate(93,40)"/>
<path d="M0 0 C6.17373891 0.59886356 11.23821826 2.27018462 16.15234375 6.15234375 C17.9134523 8.43894437 18.95458377 10.49644119 20.15234375 13.15234375 C19.43820313 12.86488281 18.7240625 12.57742187 17.98828125 12.28125 C7.84250313 8.17881512 7.84250313 8.17881512 -2.84765625 6.15234375 C-3.47265625 4.27734375 -3.47265625 4.27734375 -3.84765625 2.15234375 C-1.84765625 0.15234375 -1.84765625 0.15234375 0 0 Z " fill="#F4C684" transform="translate(120.84765625,40.84765625)"/>
<path d="M0 0 C0.33 0.99 0.66 1.98 1 3 C0.67 3.66 0.34 4.32 0 5 C1.65 4.34 3.3 3.68 5 3 C4.34 4.32 3.68 5.64 3 7 C4.65 6.67 6.3 6.34 8 6 C8 6.66 8 7.32 8 8 C6.35 8.33 4.7 8.66 3 9 C2.87625 9.763125 2.7525 10.52625 2.625 11.3125 C2 14 2 14 0 17 C-1.9453125 17.29296875 -1.9453125 17.29296875 -4.125 17.1875 C-5.40375 17.125625 -6.6825 17.06375 -8 17 C-6 16 -4 15 -2 14 C-2.33 11.69 -2.66 9.38 -3 7 C-4.32 7 -5.64 7 -7 7 C-7.6814823 8.89179203 -7.6814823 8.89179203 -8 11 C-7.34 11.66 -6.68 12.32 -6 13 C-7.65 13.33 -9.3 13.66 -11 14 C-11.29296875 7.9453125 -11.29296875 7.9453125 -11 6 C-7.3558226 3.5705484 -5.28758728 3.83820425 -1 4 C-0.67 2.68 -0.34 1.36 0 0 Z " fill="#513F3C" transform="translate(133,61)"/>
<path d="M0 0 C1.98 0.495 1.98 0.495 4 1 C2.515 3.475 2.515 3.475 1 6 C4.64496845 4.73917581 4.64496845 4.73917581 7.5625 2.3125 C8.036875 1.879375 8.51125 1.44625 9 1 C11.1875 1.3125 11.1875 1.3125 13 2 C13.31785906 5.49644963 13.39644605 7.397402 11.4375 10.375 C8.1005787 12.5996142 5.93094707 12.50030235 2 12 C0.265625 10.765625 0.265625 10.765625 -1 9 C-1.07421875 6.73828125 -1.07421875 6.73828125 -0.6875 4.3125 C-0.56761719 3.50425781 -0.44773437 2.69601563 -0.32421875 1.86328125 C-0.21722656 1.24839844 -0.11023438 0.63351563 0 0 Z " fill="#43353A" transform="translate(81,67)"/>
<path d="M0 0 C8.37671879 -0.96243152 13.22082862 1.19860523 20 6 C20.99 6.66 21.98 7.32 23 8 C22.814375 7.030625 22.62875 6.06125 22.4375 5.0625 C22.293125 4.051875 22.14875 3.04125 22 2 C23 1 23 1 25.4375 0.75 C26.7059375 0.87375 26.7059375 0.87375 28 1 C30.4294516 4.6441774 30.16179575 6.71241272 30 11 C29.67 9.68 29.34 8.36 29 7 C28.34 7 27.68 7 27 7 C27.33 5.68 27.66 4.36 28 3 C26.68 3 25.36 3 24 3 C24.28875 3.80824219 24.5775 4.61648437 24.875 5.44921875 C25.24625 6.51785156 25.6175 7.58648437 26 8.6875 C26.37125 9.74324219 26.7425 10.79898437 27.125 11.88671875 C27.9391857 14.78362056 28.17709796 17.01700623 28 20 C26.27774009 17.76106212 24.74554235 15.56647955 23.3125 13.125 C17.15141694 4.79921208 9.97562643 2.73356923 0 1 C0 0.67 0 0.34 0 0 Z " fill="#4A3A3E" transform="translate(74,19)"/>
<path d="M0 0 C0.99 0.33 1.98 0.66 3 1 C2.46890625 1.36351563 1.9378125 1.72703125 1.390625 2.1015625 C-3.15144754 5.33405938 -6.23059286 8.1535375 -9 13 C-9.99 12.67 -10.98 12.34 -12 12 C-12 15.63 -12 19.26 -12 23 C-13.98 23 -15.96 23 -18 23 C-17.01 22.67 -16.02 22.34 -15 22 C-14.68500995 16.96015922 -15.3096417 13.51836076 -17.34375 8.89453125 C-18 7 -18 7 -18 3 C-16.68 3 -15.36 3 -14 3 C-14.33 4.32 -14.66 5.64 -15 7 C-12.525 7.99 -12.525 7.99 -10 9 C-9.44570312 8.43410156 -8.89140625 7.86820313 -8.3203125 7.28515625 C-7.59585938 6.55167969 -6.87140625 5.81820313 -6.125 5.0625 C-5.40570313 4.33160156 -4.68640625 3.60070312 -3.9453125 2.84765625 C-2 1 -2 1 0 0 Z " fill="#68554F" transform="translate(116,19)"/>
<path d="M0 0 C5.30462144 0.33153884 9.2456412 3.46112316 13 7 C14.23828125 9.19921875 14.23828125 9.19921875 15 11 C14.38125 10.505 13.7625 10.01 13.125 9.5 C11.16119096 7.80777227 11.16119096 7.80777227 9 8 C9 8.99 9 9.98 9 11 C2.25 11.125 2.25 11.125 0 10 C0.375 7.0625 0.375 7.0625 1 4 C1.66 3.67 2.32 3.34 3 3 C2.01 2.01 1.02 1.02 0 0 Z " fill="#AAB36A" transform="translate(81,27)"/>
<path d="M0 0 C1.22589844 0.01353516 1.22589844 0.01353516 2.4765625 0.02734375 C3.41628906 0.04474609 3.41628906 0.04474609 4.375 0.0625 C-1.21424205 5.9622555 -1.21424205 5.9622555 -4.625 7.0625 C-5.264375 6.835625 -5.90375 6.60875 -6.5625 6.375 C-7.243125 6.271875 -7.92375 6.16875 -8.625 6.0625 C-12.52047373 9.19788129 -14.61864342 12.52179827 -16.625 17.0625 C-17.375 15.4375 -17.375 15.4375 -17.625 13.0625 C-14.03697291 6.18544807 -8.05125875 -0.11501798 0 0 Z " fill="#CCD78B" transform="translate(123.625,18.9375)"/>
<path d="M0 0 C0.66 0.66 1.32 1.32 2 2 C0.02 3.32 -1.96 4.64 -4 6 C-2.82630859 6.07347656 -2.82630859 6.07347656 -1.62890625 6.1484375 C-0.61699219 6.22320312 0.39492187 6.29796875 1.4375 6.375 C2.95150391 6.47941406 2.95150391 6.47941406 4.49609375 6.5859375 C5.32238281 6.72257812 6.14867187 6.85921875 7 7 C7.33 7.66 7.66 8.32 8 9 C5.19096379 10.4045181 2.81885492 10.13209254 -0.3125 10.125 C-1.44300781 10.12757812 -2.57351562 10.13015625 -3.73828125 10.1328125 C-6.62153596 10.01541051 -9.1990855 9.66212988 -12 9 C-12 8.34 -12 7.68 -12 7 C-11.21753906 6.57847656 -10.43507813 6.15695313 -9.62890625 5.72265625 C-8.61699219 5.17480469 -7.60507813 4.62695312 -6.5625 4.0625 C-5.55316406 3.51722656 -4.54382813 2.97195312 -3.50390625 2.41015625 C-1.13329507 1.22300532 -1.13329507 1.22300532 0 0 Z " fill="#544446" transform="translate(124,116)"/>
<path d="M0 0 C0.66 0.33 1.32 0.66 2 1 C2 1.66 2 2.32 2 3 C3.134375 3.12375 4.26875 3.2475 5.4375 3.375 C6.613125 3.58125 7.78875 3.7875 9 4 C9.33 4.66 9.66 5.32 10 6 C4.5 11 4.5 11 0 11 C0.875 7.125 0.875 7.125 2 6 C1.01 5.67 0.02 5.34 -1 5 C-1.33 6.32 -1.66 7.64 -2 9 C-4.475 8.01 -4.475 8.01 -7 7 C-6.01 6.67 -5.02 6.34 -4 6 C-3.34 6.33 -2.68 6.66 -2 7 C-2.66 5.35 -3.32 3.7 -4 2 C-3.34 2 -2.68 2 -2 2 C-2 2.66 -2 3.32 -2 4 C-1.01 4 -0.02 4 1 4 C0.67 2.68 0.34 1.36 0 0 Z " fill="#644D42" transform="translate(82,62)"/>
<path d="M0 0 C1.65 0.33 3.3 0.66 5 1 C5.33 3.31 5.66 5.62 6 8 C3.69631264 9.06652192 1.35981813 10.06421005 -1 11 C-1.66 10.67 -2.32 10.34 -3 10 C-3 9.01 -3 8.02 -3 7 C-2.34 6.67 -1.68 6.34 -1 6 C-1.33 5.01 -1.66 4.02 -2 3 C-1.34 2.01 -0.68 1.02 0 0 Z " fill="#63575A" transform="translate(126,67)"/>
<path d="M0 0 C0.66 0 1.32 0 2 0 C1.67 3.3 1.34 6.6 1 10 C2.505625 9.34 4.01125 8.68 5.5625 8 C10.01505355 6.20124437 13.2435409 5.58639486 18 6 C18.33 6.66 18.66 7.32 19 8 C18.20335938 8.12117188 17.40671875 8.24234375 16.5859375 8.3671875 C8.65498622 9.61883475 8.65498622 9.61883475 1 12 C1.99 13.32 2.98 14.64 4 16 C3.67 16.66 3.34 17.32 3 18 C0.69 16.02 -1.62 14.04 -4 12 C-3.34 11.67 -2.68 11.34 -2 11 C-0.85185003 8.70370006 -0.69230191 6.92301914 -0.4375 4.375 C-0.35371094 3.55773438 -0.26992187 2.74046875 -0.18359375 1.8984375 C-0.12300781 1.27195313 -0.06242187 0.64546875 0 0 Z " fill="#6B5846" transform="translate(104,31)"/>
<path d="M0 0 C1.95825873 -0.02694851 3.91662226 -0.04637218 5.875 -0.0625 C6.96554688 -0.07410156 8.05609375 -0.08570312 9.1796875 -0.09765625 C12 0 12 0 14 1 C13.67 1.66 13.34 2.32 13 3 C11.68 2.67 10.36 2.34 9 2 C9 2.66 9 3.32 9 4 C8.360625 4.103125 7.72125 4.20625 7.0625 4.3125 C6.381875 4.539375 5.70125 4.76625 5 5 C3.95550089 8.13349732 4.06576355 8.98968256 5 12 C0.02368421 7.18421053 0.02368421 7.18421053 -0.0625 2.875 C-0.041875 1.92625 -0.02125 0.9775 0 0 Z " fill="#D6E09C" transform="translate(71,21)"/>
<path d="M0 0 C2.31 0.33 4.62 0.66 7 1 C7.33 3.31 7.66 5.62 8 8 C6.35 8.33 4.7 8.66 3 9 C0.9375 6.75 0.9375 6.75 -1 4 C-0.75 1.6875 -0.75 1.6875 0 0 Z " fill="#E2864E" transform="translate(72,82)"/>
<path d="M0 0 C1.58323688 -0.027193 3.16661062 -0.04648306 4.75 -0.0625 C6.07257813 -0.07990234 6.07257813 -0.07990234 7.421875 -0.09765625 C9.80352509 -0.00744223 11.70627404 0.41746642 14 1 C15.58211573 1.06548492 17.16670081 1.08578381 18.75 1.0625 C19.94882813 1.04896484 19.94882813 1.04896484 21.171875 1.03515625 C22.07679688 1.01775391 22.07679688 1.01775391 23 1 C23 1.66 23 2.32 23 3 C15.307359 3.84800767 7.73708326 4.12152487 0 4 C0 2.68 0 1.36 0 0 Z " fill="#E7D6C1" transform="translate(136,115)"/>
<path d="M0 0 C0.78375 0.04125 1.5675 0.0825 2.375 0.125 C3.125 2.375 3.125 2.375 3.375 5.125 C1.6875 7.5 1.6875 7.5 -0.625 9.125 C-2.875 8.875 -2.875 8.875 -4.625 8.125 C-4.75 5.25 -4.75 5.25 -4.625 2.125 C-2.625 0.125 -2.625 0.125 0 0 Z " fill="#E3904F" transform="translate(139.625,79.875)"/>
<path d="M0 0 C3 1 3 1 5 4 C5.3125 7.0625 5.3125 7.0625 5 10 C1.1496895 12.56687367 -0.58569763 11.83288724 -5 11 C-5 10.01 -5 9.02 -5 8 C-3.35 8 -1.7 8 0 8 C0 5.36 0 2.72 0 0 Z " fill="#A26E49" transform="translate(89,94)"/>
<path d="M0 0 C1.32 0 2.64 0 4 0 C3.67 1.32 3.34 2.64 3 4 C3.66 4 4.32 4 5 4 C5 7.63 5 11.26 5 15 C3.39282229 12.58923344 2.38457485 10.71900755 1.375 8.0625 C0.98441406 7.05896484 0.98441406 7.05896484 0.5859375 6.03515625 C0 4 0 4 0 0 Z " fill="#9D7565" transform="translate(98,22)"/>
<path d="M0 0 C-0.33 0.66 -0.66 1.32 -1 2 C-3.0625 2.625 -3.0625 2.625 -5 3 C-5.6814823 4.89179203 -5.6814823 4.89179203 -6 7 C-5.34 7.66 -4.68 8.32 -4 9 C-5.65 9.33 -7.3 9.66 -9 10 C-9.29296875 3.9453125 -9.29296875 3.9453125 -9 2 C-5.5647952 -0.29013653 -4.014669 -0.17842973 0 0 Z " fill="#46363A" transform="translate(131,65)"/>
<path d="M0 0 C-0.33 0.99 -0.66 1.98 -1 3 C-2.4370809 3.05422947 -3.87475462 3.09289723 -5.3125 3.125 C-6.11300781 3.14820312 -6.91351563 3.17140625 -7.73828125 3.1953125 C-10 3 -10 3 -13 1 C-8.59085217 -0.10228696 -4.51617599 -0.07654536 0 0 Z " fill="#534447" transform="translate(88,123)"/>
<path d="M0 0 C0.66 0 1.32 0 2 0 C2.66 0.99 3.32 1.98 4 3 C6.56282742 3.72965366 6.56282742 3.72965366 9 4 C9.33 2.68 9.66 1.36 10 0 C10.66 0 11.32 0 12 0 C11.6875 1.875 11.6875 1.875 11 4 C8 6 8 6 4.9375 5.9375 C2 5 2 5 0.625 2.4375 C0.41875 1.633125 0.2125 0.82875 0 0 Z " fill="#60493E" transform="translate(103,80)"/>
<path d="M0 0 C-1 3 -1 3 -3.375 5.3125 C-6.05674473 8.05809579 -7.45923438 10.51300413 -9 14 C-9.75 12.375 -9.75 12.375 -10 10 C-4.375 0 -4.375 0 0 0 Z " fill="#D9E1AA" transform="translate(116,22)"/>
<path d="M0 0 C0.33 0 0.66 0 1 0 C1.36253776 5.43806647 1.36253776 5.43806647 -0.25 7.9375 C-2 9 -2 9 -4.1875 8.6875 C-4.785625 8.460625 -5.38375 8.23375 -6 8 C-5.34 6.68 -4.68 5.36 -4 4 C-3.01 4 -2.02 4 -1 4 C-0.67 2.68 -0.34 1.36 0 0 Z " fill="#7E6E68" transform="translate(93,69)"/>
<path d="M0 0 C1.2684375 0.12375 1.2684375 0.12375 2.5625 0.25 C4.9919516 3.8941774 4.72429575 5.96241272 4.5625 10.25 C4.2325 8.93 3.9025 7.61 3.5625 6.25 C2.9025 6.25 2.2425 6.25 1.5625 6.25 C1.8925 4.93 2.2225 3.61 2.5625 2.25 C1.2425 2.25 -0.0775 2.25 -1.4375 2.25 C-1.7675 2.91 -2.0975 3.57 -2.4375 4.25 C-2.7675 3.26 -3.0975 2.27 -3.4375 1.25 C-2.4375 0.25 -2.4375 0.25 0 0 Z " fill="#564446" transform="translate(99.4375,19.75)"/>
<path d="M0 0 C1.32 0 2.64 0 4 0 C3.67 1.32 3.34 2.64 3 4 C1.35 4.33 -0.3 4.66 -2 5 C-1.125 1.125 -1.125 1.125 0 0 Z " fill="#E7E5E5" transform="translate(84,68)"/>
<path d="M0 0 C1.32 0 2.64 0 4 0 C3.67 1.32 3.34 2.64 3 4 C1.35 4.33 -0.3 4.66 -2 5 C-1.34 3.35 -0.68 1.7 0 0 Z " fill="#EAE8E9" transform="translate(126,67)"/>
<path d="M0 0 C0.33 0.99 0.66 1.98 1 3 C-2.4019487 5.09350689 -5.05272412 5.17942163 -9 5 C-8.443125 4.731875 -7.88625 4.46375 -7.3125 4.1875 C-4.80287477 2.89877353 -2.40665764 1.47073522 0 0 Z " fill="#DF9655" transform="translate(133,98)"/>
<path d="M0 0 C0.66 0 1.32 0 2 0 C0.63055898 2.94956528 -0.87830409 5.52468811 -3 8 C-3.66 8 -4.32 8 -5 8 C-3.63055898 5.05043472 -2.12169591 2.47531189 0 0 Z " fill="#DC9855" transform="translate(140,97)"/>
<path d="M0 0 C0.66 0.33 1.32 0.66 2 1 C0.25 6.75 0.25 6.75 -2 9 C-2.33 8.34 -2.66 7.68 -3 7 C-2.06421005 4.64018187 -1.06652192 2.30368736 0 0 Z " fill="#614A43" transform="translate(147,86)"/>
<path d="M0 0 C0.66 0.33 1.32 0.66 2 1 C1.67 1.66 1.34 2.32 1 3 C1.66 3.33 2.32 3.66 3 4 C0.69 4 -1.62 4 -4 4 C-2.68 2.68 -1.36 1.36 0 0 Z " fill="#E2D3BE" transform="translate(123,119)"/>
<path d="M0 0 C1.98 0.495 1.98 0.495 4 1 C2.47793991 3.62901288 1.15634036 5.84365964 -1 8 C-0.67 5.36 -0.34 2.72 0 0 Z " fill="#342934" transform="translate(81,67)"/>
<path d="M0 0 C3.3 0 6.6 0 10 0 C10.33 0.99 10.66 1.98 11 3 C7.37 2.34 3.74 1.68 0 1 C0 0.67 0 0.34 0 0 Z " fill="#584C4A" transform="translate(74,19)"/>
</svg>
