<?xml version="1.0" encoding="UTF-8"?>
<svg version="1.1" xmlns="http://www.w3.org/2000/svg" width="225" height="225">
<path d="M0 0 C74.25 0 148.5 0 225 0 C225 74.25 225 148.5 225 225 C150.75 225 76.5 225 0 225 C0 150.75 0 76.5 0 0 Z " fill="#EDE9DE" transform="translate(0,0)"/>
<path d="M0 0 C2.8125 1.75 2.8125 1.75 4.6875 4 C6.77440897 6.13054755 6.77440897 6.13054755 10.0625 5.5 C10.74828125 5.37496094 11.4340625 5.24992187 12.140625 5.12109375 C15.69699399 4.62715361 19.22888447 4.57689038 22.8125 4.5625 C23.51729492 4.55645752 24.22208984 4.55041504 24.94824219 4.54418945 C28.69320179 4.56306349 31.81076354 4.86740094 35.3125 6.1875 C38.73987602 7.13615086 38.73987602 7.13615086 40.9921875 5.359375 C43.03543716 3.57062263 44.91378044 1.68883336 46.8125 -0.25 C50.66110867 -2.17430434 54.96408831 -1.83388456 58.9765625 -0.56640625 C63.7380167 1.58248975 66.63389073 3.84812913 68.8125 8.75 C69.66525971 14.76832718 69.18709725 19.55831192 65.8125 24.75 C65.1525 25.41 64.4925 26.07 63.8125 26.75 C64.21281923 30.12170282 65.26857953 33.1786742 66.375 36.375 C68.08292478 41.88015559 68.10597397 47.03269222 67.8125 52.75 C65.875 53.3125 65.875 53.3125 63.8125 53.75 C62.054982 51.992482 62.64178188 49.32445092 62.5625 46.9375 C62.16184725 40.66521206 60.52945857 35.91960903 57.7734375 30.30859375 C56.72006375 27.50387909 56.60583227 26.45621598 57.8125 23.75 C58.6375 22.986875 59.4625 22.22375 60.3125 21.4375 C63.43064011 18.08549938 63.89232691 16.30013385 63.8125 11.75 C61.58270332 7.49201624 61.58270332 7.49201624 57.8125 4.75 C54.75309163 4.32925622 51.8665292 4.27000577 48.8125 4.75 C45.53074682 7.27968474 44.12006223 8.82731331 42.8125 12.75 C39.08102253 12.28356532 35.55633214 11.7121091 31.9375 10.6875 C25.04789584 8.92195597 18.73682832 9.54667931 11.8984375 11.23828125 C9.22561883 11.89397272 6.53133043 12.3317184 3.8125 12.75 C3.4 11.80125 2.9875 10.8525 2.5625 9.875 C1.09800642 6.81053129 1.09800642 6.81053129 -0.875 5.375 C-4.37655882 4.42863275 -7.63116217 4.07260232 -11.1875 4.75 C-14.78949656 7.27906142 -15.95193405 8.98787487 -17.25 13.1875 C-17.17243382 17.60877235 -15.99579096 19.39565246 -13.1875 22.75 C-12.1975 23.41 -11.2075 24.07 -10.1875 24.75 C-10.77366317 28.21813209 -11.70635297 31.06989019 -13.1875 34.25 C-15.70448436 40.28711466 -15.98441987 46.27174373 -16.1875 52.75 C-18.125 53.3125 -18.125 53.3125 -20.1875 53.75 C-21.85747441 52.08002559 -21.3989271 50.10437312 -21.4375 47.8125 C-21.4052267 42.84886629 -20.55938474 38.71322259 -18.94140625 34.0390625 C-18.13475237 31.58984398 -17.49529932 29.31358885 -17.1875 26.75 C-19.01272428 24.09346271 -19.01272428 24.09346271 -21.1875 21.75 C-22.81805404 16.85833789 -23.32662036 11.50329988 -21.31640625 6.64453125 C-16.45759926 -0.82688015 -8.28894537 -3.25056681 0 0 Z " fill="#080808" transform="translate(89.1875,86.25)"/>
<path d="M0 0 C3.6875 1.5 3.6875 1.5 6 3 C5.62299342 5.55162423 5.28133423 6.73880904 3.36328125 8.51953125 C-2.1570997 12 -2.1570997 12 -6.125 12 C-9.34657398 10.87945253 -12.13138937 9.8679325 -15 8 C-15.875 5.3125 -15.875 5.3125 -16 3 C-11.21457574 -0.96035111 -5.89579183 -0.67232714 0 0 Z " fill="#141413" transform="translate(117,124)"/>
<path d="M0 0 C2.5 0.125 2.5 0.125 3.5 1.125 C3.54080783 3.12458364 3.54254356 5.12545254 3.5 7.125 C0.625 7.75 0.625 7.75 -2.5 8.125 C-3.16 7.465 -3.82 6.805 -4.5 6.125 C-3.77607362 0.18880368 -3.77607362 0.18880368 0 0 Z " fill="#090909" transform="translate(95.5,116.875)"/>
<path d="M0 0 C2.5625 0.1875 2.5625 0.1875 4.5625 2.1875 C4.1875 4.8125 4.1875 4.8125 3.5625 7.1875 C1.1875 7.8125 1.1875 7.8125 -1.4375 8.1875 C-3.4375 6.1875 -3.4375 6.1875 -3.625 3.625 C-3.37291261 0.34786389 -3.27713611 0.25208739 0 0 Z " fill="#080807" transform="translate(129.4375,116.8125)"/>
</svg>
